
        <svg xmlns="http://www.w3.org/2000/svg" xmlns:xlink="http://www.w3.org/1999/xlink" version="1.1" width="3134.120306610023" 
        height="2984.1768220730114" viewBox="0 0 3134.120306610023 2984.1768220730114">
			
			<g transform="scale(6.706015330501151) translate(10, 10)">
				<defs id="SvgjsDefs10644"></defs><g id="SvgjsG10645" featureKey="rootContainer" transform="matrix(2.261710524146834,0,0,2.261710524146834,-0.013480845237653458,0.010154745781516176)" fill="#c2734a"><path xmlns="http://www.w3.org/2000/svg" d="M23.578 142.948c1.016 1.9 2.245 3.494 3.655 4.776a15.131 15.131 0 0 0 2.558 1.867 92.394 92.394 0 0 0 10.786 12.655c.638.663 1.327 1.274 2.015 1.894l2.072 1.872 2.18 1.782c.73.597 1.458 1.204 2.235 1.752l2.309 1.696c.766.578 1.594 1.071 2.393 1.614.814.52 1.604 1.091 2.447 1.576l2.529 1.486c.833.513 1.726.966 2.617 1.427l2.681 1.384 2.649 1.211 1.331.608.234.101.175.07.352.139.704.278 2.829 1.118c.952.358 1.927.661 2.895.995 1.929.697 3.931 1.195 5.927 1.768 4.027.983 8.153 1.854 12.384 2.283l1.585.19c.53.053 1.063.08 1.596.12l3.207.219c2.146.025 4.309.142 6.477.029 4.342-.079 8.712-.551 13.07-1.283 4.37-.697 8.695-1.829 12.979-3.175 8.554-2.763 16.778-6.906 24.35-12.13l2.816-2.002 2.726-2.137c.924-.697 1.782-1.473 2.661-2.228.871-.763 1.77-1.499 2.594-2.317l2.502-2.426 2.386-2.547c.811-.836 1.55-1.737 2.305-2.625.744-.898 1.533-1.76 2.224-2.701l2.131-2.78c.684-.947 1.336-1.917 2.005-2.876.328-.483.674-.956.987-1.45l.927-1.49c.605-1 1.262-1.972 1.823-3l1.704-3.072c.573-1.017 1.074-2.138 1.612-3.204l.791-1.62c.266-.542.453-1.029.684-1.546l1.321-3.06.357-.941.301-.826.599-1.652c.419-1.094.762-2.215 1.102-3.336.331-1.123.718-2.231 1-3.368l.865-3.405c.296-1.133.484-2.29.73-3.434l.346-1.72c.11-.574.183-1.155.275-1.733.171-1.157.361-2.31.512-3.468l.354-3.486c.143-1.159.159-2.328.233-3.491.06-1.164.139-2.327.122-3.492l.009-3.49-.154-3.482c-.023-1.161-.18-2.313-.29-3.466-.123-1.152-.215-2.305-.411-3.447l-.521-3.425-.678-3.389c-1.927-8.998-5.094-17.645-9.404-25.535-2.199-3.918-4.573-7.708-7.278-11.212-2.672-3.522-5.532-6.862-8.64-9.897-1.502-1.568-3.157-2.966-4.738-4.419l-2.486-2.04c-.415-.335-.822-.681-1.244-1.006l-1.286-.948c-3.376-2.588-6.978-4.783-10.586-6.828-1.85-.953-3.631-1.955-5.557-2.79-.942-.425-1.895-.887-2.819-1.272l-2.741-1.088-1.436-.564-1.428-.485-2.84-.963-2.865-.816c-.952-.27-1.896-.549-2.859-.748l-2.861-.652c-.947-.225-1.914-.351-2.863-.53-.955-.153-1.896-.36-2.85-.465l-2.844-.347c-.941-.134-1.888-.191-2.829-.256l-2.81-.197-2.792-.058c-.926-.02-1.848-.047-2.766-.002a92.396 92.396 0 0 0-20.951 2.813C70.87 6.294 59.715 12.057 50.991 18.6a94.794 94.794 0 0 0-11.452 10.073c-.852.814-1.59 1.705-2.365 2.525l-1.131 1.235c-.364.415-.705.843-1.052 1.256l-2.014 2.438-1.806 2.405c-4.652 6.288-7.49 11.763-9.253 15.555-.943 1.875-1.481 3.375-1.92 4.36l-.631 1.504-.002.007-.574 1.533c-.356 1.019-.997 2.493-1.593 4.497-1.313 3.96-3.002 9.899-3.925 17.664l-.334 2.989-.205 3.156c-.03.539-.075 1.083-.095 1.635l-.023 1.675c.001 1.128-.071 2.283-.009 3.46.065 4.711.49 9.809 1.436 15.183.741 4.274 1.88 8.723 3.416 13.253.184-.686.392-1.364.604-2.041a88.156 88.156 0 0 1-3.019-11.404c-2.073-10.61-1.93-20.138-1.051-27.822.868-7.709 2.508-13.618 3.789-17.561.581-1.995 1.208-3.463 1.556-4.478l.56-1.525.639-1.496c.442-.978.997-2.489 1.94-4.333 1.766-3.739 4.625-9.172 9.278-15.377 4.627-6.196 11.056-13.232 19.838-19.535A91.393 91.393 0 0 1 84.369 4.538a90.29 90.29 0 0 1 20.54-2.216c.895-.022 1.792.028 2.692.072l2.713.125 2.726.263c.912.087 1.829.165 2.74.32l2.75.409c.923.124 1.831.351 2.752.523.915.198 1.847.342 2.759.585l2.753.702c.926.216 1.834.51 2.747.795l2.747.859 2.72 1.002 1.366.503c.433.17.895.378 1.341.566.901.386 1.804.773 2.711 1.16.897.402 1.764.855 2.652 1.283 1.786.825 3.494 1.846 5.244 2.803 3.415 2.057 6.814 4.246 9.982 6.808l1.207.938c.396.322.776.663 1.166.994l2.327 2.01c1.474 1.431 3.021 2.8 4.415 4.336 2.892 2.969 5.534 6.223 7.991 9.637 2.489 3.396 4.65 7.057 6.641 10.824a90.828 90.828 0 0 1 8.513 24.323 91.449 91.449 0 0 1 1.326 26.142l-.354 3.283c-.149 1.091-.336 2.177-.503 3.266-.091.543-.161 1.091-.268 1.631l-.337 1.619c-.239 1.076-.418 2.166-.705 3.232-1.023 4.289-2.432 8.505-3.994 12.605-1.699 4.128-3.543 8.104-5.743 11.943-.522.972-1.138 1.89-1.702 2.837l-.864 1.41c-.293.467-.617.913-.923 1.371-.625.906-1.233 1.826-1.873 2.722l-1.994 2.632a91.455 91.455 0 0 1-18.886 18.123 90.78 90.78 0 0 1-22.873 11.874c-4.033 1.377-8.116 2.561-12.256 3.328-4.129.801-8.283 1.359-12.424 1.538-2.067.163-4.133.099-6.187.13l-3.072-.133c-.51-.026-1.022-.038-1.53-.075l-1.522-.145c-4.062-.306-8.038-1.042-11.935-1.887-1.93-.502-3.871-.929-5.744-1.555-.94-.298-1.888-.564-2.814-.886l-2.755-1.009c-.452-.169-.927-.332-1.359-.504l-1.346-.573-2.679-1.141-2.584-1.256c-.858-.417-1.718-.825-2.541-1.303l-2.485-1.376c-.831-.448-1.608-.982-2.41-1.466-.788-.507-1.605-.963-2.362-1.505l-2.282-1.588c-.769-.512-1.49-1.084-2.214-1.645l-2.165-1.677-2.062-1.768c-.686-.585-1.373-1.164-2.009-1.793a89.99 89.99 0 0 1-8.856-9.531c.231.062.463.124.698.174 2.463.526 5.113.419 7.807-.352.102-.028.196-.059.293-.087a21.741 21.741 0 0 0-2.847-2.14c-1.604.238-3.172.203-4.651-.111-2.067-.444-4.185-1.184-5.819-2.67-1.6-1.459-3.053-4.042-4.042-6.46 2.796-7.631 1.636-11.844-3.331-16.899-2.837 5.549-3.59 11.442.664 16.816.188.574.386 1.117.605 1.653-6.879-6.4-14.747-9.121-22.649-1.218 9.788 2.096 13.684-4.301 18.524-.083-4.215-.728-10.32 1.274-11.684 3.522 5.878.936 11.135-2.732 16.732-.229z"></path></g><g id="SvgjsG10646" featureKey="symbolFeature-0" transform="matrix(2.246072202185397,0,0,2.246072202185397,111.80163596882288,63.46966067703941)" fill="#009688"><path xmlns="http://www.w3.org/2000/svg" d="M52.094,93.749c0.001,0,11.108-7.41,0.883-22.909c-4.773-7.235-12.596-14.971-11.701-22.63  c-1.015,0.883-1.937,1.859-2.38,2.453c-1.618,2.169-2.791,4.529-3.392,6.964c-0.697,2.823-0.515,5.795,1.102,8.686  c1.501,2.683,4.107,5.103,6.558,7.537c5.868,5.826,11.036,12.018,9.461,18.607C52.541,92.811,52.5,93.478,52.094,93.749z"></path><path xmlns="http://www.w3.org/2000/svg" d="M59.398,79.14c0.001-0.001,17.835-11.897,1.417-36.782C53.152,30.742,40.592,18.321,42.03,6.024  c-1.365,1.194-3.11,2.985-3.821,3.939c-2.598,3.482-4.481,7.271-5.446,11.181c-1.12,4.533-0.827,9.304,1.77,13.946  c2.41,4.308,6.594,8.193,10.53,12.102c9.421,9.355,17.719,19.295,15.19,29.876C60.116,77.635,60.049,78.706,59.398,79.14z"></path></g><g id="SvgjsG10647" featureKey="nameFeature-0" transform="matrix(0.8829437367896434,0,0,0.8829437367896434,122.94046789477078,284.25230033748323)" fill="#cd7f32"><path d="M18.64 25.28 c1.72 0.88 5.24 1.76 5.24 7.44 c0 5 -5.28 7.48 -9.48 7.48 l-13.2 0 l0 -1.04 c0.68 0 1.36 -0.2 1.6 -0.6 l0.04 -24.92 c-0.24 -0.52 -0.92 -0.72 -1.64 -0.72 l0 -1.04 l12.28 0 c4.72 0 9.44 2.28 9.44 6.96 c0 4.36 -2.52 5.52 -4.28 6.44 z M6.96 14.04 l0.04 10.12 c1.8 -0.04 5.24 -0.12 6.6 -0.12 c2.56 0 4.92 -2.08 4.92 -4.88 c0 -3.6 -3.32 -5.12 -5.44 -5.12 l-6.12 0 z M14.56 37.84 c2.4 -0.04 4.8 -1.88 4.8 -5.92 c0 -2.64 -3.2 -5.76 -5.76 -5.76 l-6.52 0.04 l0 7.4 c0 4.68 2.24 4.24 7.48 4.24 z M2.92 38.16 l0 -0.12 l0 0.12 z M55.645 11.600000000000001 l0 1.04 c-0.92 0 -1.76 0.32 -1.72 1.12 l0 16.32 c0 4.4 -2.08 10.68 -11.04 10.68 c-9.28 0 -11.64 -6.28 -11.64 -10 l0 -17 c0.04 -0.8 -0.8 -1.12 -1.72 -1.12 l0 -1.04 l8.24 0 l0 1.04 c-0.92 0 -1.76 0.32 -1.72 1.12 l0 16.64 c0 3.52 1.28 7.56 6.84 7.56 s6.4 -4.04 6.4 -7.36 l0 -16.84 c0.04 -0.8 -0.8 -1.12 -1.72 -1.12 l0 -1.04 l8.08 0 z M79.53 25.28 c1.72 0.88 5.24 1.76 5.24 7.44 c0 5 -5.28 7.48 -9.48 7.48 l-13.2 0 l0 -1.04 c0.68 0 1.36 -0.2 1.6 -0.6 l0.04 -24.92 c-0.24 -0.52 -0.92 -0.72 -1.64 -0.72 l0 -1.04 l12.28 0 c4.72 0 9.44 2.28 9.44 6.96 c0 4.36 -2.52 5.52 -4.28 6.44 z M67.85 14.04 l0.04 10.12 c1.8 -0.04 5.24 -0.12 6.6 -0.12 c2.56 0 4.92 -2.08 4.92 -4.88 c0 -3.6 -3.32 -5.12 -5.44 -5.12 l-6.12 0 z M75.45 37.84 c2.4 -0.04 4.8 -1.88 4.8 -5.92 c0 -2.64 -3.2 -5.76 -5.76 -5.76 l-6.52 0.04 l0 7.4 c0 4.68 2.24 4.24 7.48 4.24 z M63.81 38.16 l0 -0.12 l0 0.12 z M109.17500000000001 34.8 l1.36 0 l0 5.4 l-19.92 0 l0 -1.04 c0.92 0 1.76 -0.32 1.72 -1.12 l0 -24.28 c-0.04 -0.8 -0.88 -1.12 -1.72 -1.12 l0 -1.04 l19.84 0 l0 5.48 l-1.36 0 c-0.04 -0.8 -0.88 -2.72 -2.92 -2.72 l-9.52 0 l0 10.16 l8.48 0 c1.28 -0.12 1.84 -0.52 1.88 -1.48 l0.96 0 l0 5.32 l-0.96 0 c-0.04 -0.96 -0.6 -1.36 -1.88 -1.48 l-8.52 0 l0 10.64 l9.64 0 c2.04 0 2.88 -1.92 2.92 -2.72 z M116.18 11.64 l21.64 0 l0 5.48 l-1.36 0 c-0.08 -0.8 -0.92 -2.72 -2.92 -2.72 l-4.24 0 l0 23.64 c-0.04 0.8 0.8 1.12 1.72 1.12 l0 1.04 l-8.16 0 l0 -1.04 c0.92 0 1.76 -0.32 1.72 -1.12 l0 -23.64 l-4.12 0 c-2 0 -2.84 1.92 -2.92 2.72 l-1.36 0 l0 -5.48 z M162.02499999999998 34.8 l1.36 0 l0 5.4 l-19.92 0 l0 -1.04 c0.92 0 1.76 -0.32 1.72 -1.12 l0 -24.28 c-0.04 -0.8 -0.88 -1.12 -1.72 -1.12 l0 -1.04 l19.84 0 l0 5.48 l-1.36 0 c-0.04 -0.8 -0.88 -2.72 -2.92 -2.72 l-9.52 0 l0 10.16 l8.48 0 c1.28 -0.12 1.84 -0.52 1.88 -1.48 l0.96 0 l0 5.32 l-0.96 0 c-0.04 -0.96 -0.6 -1.36 -1.88 -1.48 l-8.52 0 l0 10.64 l9.64 0 c2.04 0 2.88 -1.92 2.92 -2.72 z M169.82999999999998 26.119999999999997 c0 -8.76 7.12 -15.08 14.88 -15.08 c3.68 0 7.36 1.08 9.68 3.72 l-0.04 5.16 l-1.8 0 c0.16 -3.12 -3.64 -6.52 -7.8 -6.52 c-4.8 0 -9.36 4.64 -9.36 12.72 c0 7.12 4.16 12.12 9.36 12.12 c4.12 0 8.24 -2.84 7.8 -6.4 l1.84 0.04 l0 5.56 c-2.64 2.08 -6.28 3.36 -9.68 3.36 c-8 0 -14.88 -6.24 -14.88 -14.68 z M227.71499999999997 12.64 c-0.92 0 -1.76 0.32 -1.72 1.12 l0 24.28 c-0.04 0.8 0.8 1.12 1.72 1.12 l0 1.04 l-7.44 0 l0 -1.04 c0.8 0 1.52 -0.24 1.68 -0.8 l0.04 -11.44 l-15.4 0 l0 11.12 c-0.04 0.8 0.8 1.12 1.72 1.12 l0 1.04 l-7.48 0 l0 -1.04 c0.92 0 1.76 -0.32 1.72 -1.12 l0 -24.72 c-0.24 -0.48 -0.92 -0.68 -1.64 -0.68 l0 -1.04 l7.4 0 l0 1.04 c-0.92 0 -1.76 0.32 -1.72 1.12 l0 10.72 l15.4 0 l0 -11.16 c-0.24 -0.48 -0.92 -0.68 -1.64 -0.68 l0 -1.04 l7.36 0 l0 1.04 z M202.635 13.760000000000002 l0 -0.12 l0 0.12 z M222.075 13.760000000000002 l0 -0.12 l0 0.12 z M221.995 38.16 l0 -0.12 l0 0.12 z"></path></g><g id="SvgjsG10648" featureKey="sloganFeature-0" transform="matrix(0.5329779929844136,0,0,0.5329779929844136,143.30712914282205,336.9513659919524)" fill="#009688"><path d="M11.48 8.5 l-7.44 0 l0 3.48 l6.42 0 l0 2.46 l-6.42 0 l0 5.56 l-2.74 0 l0 -14 l10.18 0 l0 2.5 z M23.32 20 l-1.14 -3.04 l-6.3 0 l-1.16 3.04 l-2.84 0 l5.36 -14 l3.56 0 l5.38 14 l-2.86 0 z M16.78 14.54 l4.48 0 l-2.24 -5.92 z M36.42 20 l-3.18 -4.9 l-2.98 0 l0 4.9 l-2.72 0 l0 -14 l6.82 0 c3.04 0 4.8 2.34 4.8 4.56 c0 1.84 -1.08 3.58 -3.06 4.26 l3.48 5.18 l-3.16 0 z M30.26 8.46 l0 4.24 l3.92 0 c1.42 0 2.32 -0.98 2.32 -2.14 c0 -1.12 -0.92 -2.1 -2.22 -2.1 l-4.02 0 z M53.22 6 l2.62 0 l0 14 l-2.74 0 l0 -9.22 l-4.46 6.18 l-4.46 -6.18 l0 9.22 l-2.74 0 l0 -14 l2.62 0 l4.58 6.62 z M69.08 20.28 c-3.42 0 -5.68 -2.06 -6.46 -4.24 l2.62 -0.8 c0.56 1.46 1.98 2.62 4 2.62 c1.64 0 2.66 -0.84 2.66 -1.76 c0 -0.74 -0.5 -1.24 -1.84 -1.68 l-3.58 -1.12 c-1.84 -0.58 -3.18 -1.76 -3.16 -3.56 c-0.02 -2.18 2.1 -4.02 5.02 -4.02 c3.02 0 5.26 1.66 6.02 3.6 l-2.54 0.74 c-0.58 -1.14 -1.88 -1.92 -3.46 -1.92 c-1.38 0 -2.26 0.7 -2.26 1.52 c0 0.62 0.42 1.04 1.34 1.32 l3.48 1.12 c2.14 0.66 3.76 1.56 3.76 3.84 c0 2.4 -2.24 4.34 -5.6 4.34 z M88.5 6 l2.62 0 l0 14 l-2.74 0 l0 -9.22 l-4.46 6.18 l-4.46 -6.18 l0 9.22 l-2.74 0 l0 -14 l2.62 0 l4.58 6.62 z M103.94 20 l-1.14 -3.04 l-6.3 0 l-1.16 3.04 l-2.84 0 l5.36 -14 l3.56 0 l5.38 14 l-2.86 0 z M97.4 14.54 l4.48 0 l-2.24 -5.92 z M117.03999999999999 20 l-3.18 -4.9 l-2.98 0 l0 4.9 l-2.72 0 l0 -14 l6.82 0 c3.04 0 4.8 2.34 4.8 4.56 c0 1.84 -1.08 3.58 -3.06 4.26 l3.48 5.18 l-3.16 0 z M110.88 8.46 l0 4.24 l3.92 0 c1.42 0 2.32 -0.98 2.32 -2.14 c0 -1.12 -0.92 -2.1 -2.22 -2.1 l-4.02 0 z M133.20000000000002 6 l0 2.48 l-4.7 0 l0 11.52 l-2.74 0 l0 -11.52 l-4.7 0 l0 -2.48 l12.14 0 z M145.12 8.48 l-7.64 0 l0 3.2 l6.62 0 l0 2.4 l-6.62 0 l0 3.44 l7.62 0 l0 2.48 l-10.3 0 l0 -14 l10.32 0 l0 2.48 z M156.20000000000002 20 l-3.18 -4.9 l-2.98 0 l0 4.9 l-2.72 0 l0 -14 l6.82 0 c3.04 0 4.8 2.34 4.8 4.56 c0 1.84 -1.08 3.58 -3.06 4.26 l3.48 5.18 l-3.16 0 z M150.04000000000002 8.46 l0 4.24 l3.92 0 c1.42 0 2.32 -0.98 2.32 -2.14 c0 -1.12 -0.92 -2.1 -2.22 -2.1 l-4.02 0 z M160.82000000000002 22.740000000000002 l0.88 -5.54 l2.78 0 l-1.56 5.54 l-2.1 0 z M174.34 17.48 l6.98 0 l0 2.52 l-9.72 0 l0 -14 l2.74 0 l0 11.48 z M183.08 20 l0 -14 l2.78 0 l0 14 l-2.78 0 z M198.28 6 l3.02 0 l-5.52 14 l-3 0 l-5.52 -14 l3.02 0 l4 10.52 z M213.02 8.48 l-7.64 0 l0 3.2 l6.62 0 l0 2.4 l-6.62 0 l0 3.44 l7.62 0 l0 2.48 l-10.3 0 l0 -14 l10.32 0 l0 2.48 z M229.7 12.66 c1.38 0.62 2.26 1.8 2.26 3.38 c0 2.4 -1.78 3.96 -4.76 3.96 l-7.06 0 l0 -14 l6.68 0 c2.74 0 4.6 1.52 4.62 3.74 c0 1.34 -0.66 2.34 -1.74 2.92 z M226.8 8.36 l-3.98 0 l0 3.46 l4.04 0 c1.14 0 1.9 -0.8 1.88 -1.76 c0 -0.98 -0.78 -1.72 -1.94 -1.7 z M227.18 17.62 c1.3 0 2.06 -0.82 2.06 -1.84 c0 -1 -0.74 -1.8 -2.04 -1.8 l-4.38 0 l0 3.64 l4.36 0 z M244.3 8.48 l-7.64 0 l0 3.2 l6.62 0 l0 2.4 l-6.62 0 l0 3.44 l7.62 0 l0 2.48 l-10.3 0 l0 -14 l10.32 0 l0 2.48 z M257.64000000000004 6 l0 2.48 l-4.7 0 l0 11.52 l-2.74 0 l0 -11.52 l-4.7 0 l0 -2.48 l12.14 0 z M270.38 6 l0 2.48 l-4.7 0 l0 11.52 l-2.74 0 l0 -11.52 l-4.7 0 l0 -2.48 l12.14 0 z M282.3 8.48 l-7.64 0 l0 3.2 l6.62 0 l0 2.4 l-6.62 0 l0 3.44 l7.62 0 l0 2.48 l-10.3 0 l0 -14 l10.32 0 l0 2.48 z M293.38 20 l-3.18 -4.9 l-2.98 0 l0 4.9 l-2.72 0 l0 -14 l6.82 0 c3.04 0 4.8 2.34 4.8 4.56 c0 1.84 -1.08 3.58 -3.06 4.26 l3.48 5.18 l-3.16 0 z M287.21999999999997 8.46 l0 4.24 l3.92 0 c1.42 0 2.32 -0.98 2.32 -2.14 c0 -1.12 -0.92 -2.1 -2.22 -2.1 l-4.02 0 z M298.79999999999995 15.440000000000001 l-0.36 -9.44 l2.88 0 l-0.36 9.44 l-2.16 0 z M299.85999999999996 20.16 c-0.92 0 -1.64 -0.72 -1.64 -1.64 c0 -0.86 0.72 -1.56 1.64 -1.56 s1.64 0.7 1.64 1.56 c0 0.92 -0.72 1.64 -1.64 1.64 z"></path></g>
			</g>
		</svg>
	